HIERARCHY
ROOT Hips
{
	OFFSET 0.00 0.00 0.00
	CHANNELS 6 Xposition Yposition Zposition Zrotation Xrotation Yrotation
		JOINT Spine
		{
			OFFSET 0.00 10.00 0.00
			CHANNELS 3 Zrotation Xrotation Yrotation
			JOINT Spine1
			{
				OFFSET 0.00 10.00 0.00
				CHANNELS 3 Zrotation Xrotation Yrotation
				JOINT Spine2
				{
					OFFSET 0.00 10.00 0.00
					CHANNELS 3 Zrotation Xrotation Yrotation
					JOINT Neck
					{
						OFFSET 0.00 10.00 0.00
						CHANNELS 3 Zrotation Xrotation Yrotation
						JOINT Head
						{
							OFFSET 0.00 10.00 0.00
							CHANNELS 3 Zrotation Xrotation Yrotation
						End Site
						{
							OFFSET 0.00 0.00 0.00
						}
					}
					End Site
					{
						OFFSET 0.00 0.00 0.00
					}
				}
					JOINT LeftArm
					{
						OFFSET 10.00 0.00 0.00
						CHANNELS 3 Zrotation Xrotation Yrotation
						JOINT LeftForeArm
						{
							OFFSET 20.00 0.00 0.00
							CHANNELS 3 Zrotation Xrotation Yrotation
							JOINT LeftHand
							{
								OFFSET 20.00 0.00 0.00
								CHANNELS 3 Zrotation Xrotation Yrotation
							End Site
							{
								OFFSET 0.00 0.00 0.00
							}
						}
						End Site
						{
							OFFSET 0.00 0.00 0.00
						}
					}
					End Site
					{
						OFFSET 0.00 0.00 0.00
					}
				}
					JOINT RightArm
					{
						OFFSET -10.00 0.00 0.00
						CHANNELS 3 Zrotation Xrotation Yrotation
						JOINT RightForeArm
						{
							OFFSET -20.00 0.00 0.00
							CHANNELS 3 Zrotation Xrotation Yrotation
							JOINT RightHand
							{
								OFFSET -20.00 0.00 0.00
								CHANNELS 3 Zrotation Xrotation Yrotation
							End Site
							{
								OFFSET 0.00 0.00 0.00
							}
						}
						End Site
						{
							OFFSET 0.00 0.00 0.00
						}
					}
					End Site
					{
						OFFSET 0.00 0.00 0.00
					}
				}
				End Site
				{
					OFFSET 0.00 0.00 0.00
				}
			}
			End Site
			{
				OFFSET 0.00 0.00 0.00
			}
		}
		End Site
		{
			OFFSET 0.00 0.00 0.00
		}
	}
		JOINT LeftUpLeg
		{
			OFFSET 5.00 -10.00 0.00
			CHANNELS 3 Zrotation Xrotation Yrotation
			JOINT LeftLeg
			{
				OFFSET 0.00 -20.00 0.00
				CHANNELS 3 Zrotation Xrotation Yrotation
				JOINT LeftFoot
				{
					OFFSET 0.00 -20.00 0.00
					CHANNELS 3 Zrotation Xrotation Yrotation
					JOINT LeftToeBase
					{
						OFFSET 0.00 -5.00 5.00
						CHANNELS 3 Zrotation Xrotation Yrotation
					End Site
					{
						OFFSET 0.00 0.00 0.00
					}
				}
				End Site
				{
					OFFSET 0.00 0.00 0.00
				}
			}
			End Site
			{
				OFFSET 0.00 0.00 0.00
			}
		}
		End Site
		{
			OFFSET 0.00 0.00 0.00
		}
	}
		JOINT RightUpLeg
		{
			OFFSET -5.00 -10.00 0.00
			CHANNELS 3 Zrotation Xrotation Yrotation
			JOINT RightLeg
			{
				OFFSET 0.00 -20.00 0.00
				CHANNELS 3 Zrotation Xrotation Yrotation
				JOINT RightFoot
				{
					OFFSET 0.00 -20.00 0.00
					CHANNELS 3 Zrotation Xrotation Yrotation
					JOINT RightToeBase
					{
						OFFSET 0.00 -5.00 5.00
						CHANNELS 3 Zrotation Xrotation Yrotation
					End Site
					{
						OFFSET 0.00 0.00 0.00
					}
				}
				End Site
				{
					OFFSET 0.00 0.00 0.00
				}
			}
			End Site
			{
				OFFSET 0.00 0.00 0.00
			}
		}
		End Site
		{
			OFFSET 0.00 0.00 0.00
		}
	}
	End Site
	{
		OFFSET 0.00 0.00 0.00
	}
}
MOTION
Frames: 15
Frame Time: 0.034483
12.1934 -5.9698 -3.1419 154.1156 50.9842 -12.5062 -21.3917 14.7132 -2.7938 -21.3917 14.7132 -2.7938 54.9633 -17.2685 -9.0323 47.5784 14.7855 6.5471 -109.0068 5.6508 -7.9170 -80.3662 4.6113 5.4589 -79.3053 19.6025 23.5474 -84.8870 -1.4437 -1.5786 64.9899 4.8613 -7.6255 50.5072 1.3221 -2.8023 -170.2328 139.9469 26.3853 20.2993 -64.1375 -12.7995 -63.1882 45.9493 -29.2297 -74.1013 48.5631 -37.6152 154.3174 157.9912 -80.9331 -60.1671 -8.7558 5.0788 -5.7109 97.3911 -6.4980 -50.1678 95.2074 -54.2877 -31.5904 -175.9793 -1.1378
12.2037 -5.8108 -3.1202 154.6923 51.8912 -12.4684 -19.7570 14.5731 -2.5511 -19.7570 14.5731 -2.5511 54.9487 -19.0597 -9.9781 48.8902 13.5091 6.1635 -105.1869 8.7015 -11.3630 -77.2825 3.6042 4.5074 -77.9868 18.5889 22.8563 -86.8664 -1.9907 -2.1027 66.6237 6.2360 -9.4769 47.7430 1.5949 -3.6030 -167.8694 122.8816 22.0926 21.3095 -64.3045 -13.4884 -62.8637 45.1079 -28.4849 -74.4052 47.7686 -37.1595 158.0928 161.1121 -81.3545 -59.1839 -8.4261 4.7910 -4.1437 99.3255 -4.8789 -37.9857 109.8101 -52.1932 -17.4160 -174.4159 -0.8559
12.1936 -5.6121 -3.1295 155.3769 53.7889 -12.6334 -17.9098 13.1768 -2.0853 -17.9098 13.1768 -2.0853 55.8888 -19.1607 -10.2326 50.3873 12.6572 5.9732 -102.5779 10.7897 -13.4403 -74.2069 2.9317 3.8752 -77.2411 17.8671 22.2638 -90.0305 -1.4265 -1.4257 68.3563 7.1795 -10.5569 46.0938 2.9104 -6.8344 -168.1427 120.2356 20.4881 21.8369 -63.9664 -13.7376 -62.5426 44.8677 -28.1523 -73.7209 46.1311 -35.4124 127.4522 136.2688 -78.2155 -59.1629 -7.3511 4.1767 -5.1706 99.7535 -6.1336 -44.9370 103.3711 -55.2550 -15.3297 -174.5343 -0.7361
12.3626 -5.4108 -3.2076 156.4115 56.9719 -12.9288 -17.2609 13.0524 -1.9895 -17.2609 13.0524 -1.9895 58.2994 -18.0490 -10.1241 51.5564 13.6056 6.5946 -103.6982 8.5201 -10.8338 -72.7206 3.5678 4.8450 -76.4514 18.5687 23.4504 -92.5194 0.5196 0.4972 70.5337 6.6116 -9.3390 46.3103 2.0527 -4.7974 -166.3751 114.1196 20.8936 23.1751 -63.2766 -14.4004 -62.3080 44.5602 -27.8231 -74.3302 45.6183 -35.3657 117.4079 128.1091 -77.3451 -59.6143 -6.5657 3.7641 -6.0676 100.6938 -7.3176 -51.0449 97.1351 -56.8224 -57.1516 -176.3563 -1.9851
12.4229 -5.1581 -3.1674 157.4143 58.7667 -12.8311 -14.2357 13.0441 -1.6358 -14.2357 13.0441 -1.6358 58.7029 -19.6403 -11.1192 54.0551 12.7265 6.5120 -99.8192 11.2058 -13.2945 -66.4245 3.0939 4.7243 -76.5969 19.2885 24.2879 -96.6505 0.1845 0.1642 72.0567 8.0329 -11.0288 45.3932 4.1319 -9.8591 -168.2860 116.6670 18.8850 23.0104 -65.1059 -14.8068 -61.3157 43.9964 -26.9340 -74.8061 44.5317 -34.7676 124.8708 135.0447 -76.8033 -63.4916 -8.9442 5.5409 -4.5309 105.7143 -5.9793 -47.2783 110.0047 -64.0240 31.2552 -168.1768 3.3181
12.6333 -4.7231 -3.1428 159.3725 62.7969 -12.6761 -12.3613 12.8920 -1.4020 -12.3613 12.8920 -1.4020 61.6177 -22.4705 -13.5113 56.5813 11.2745 6.0823 -96.8266 13.2114 -14.8696 -62.7699 4.0452 6.6264 -76.5681 21.7882 27.4071 -101.2245 -1.7750 -1.4574 74.5389 6.7772 -8.8986 45.7483 3.8629 -9.1403 -174.4909 148.5166 19.3731 23.8619 -63.7814 -14.9798 -64.7157 42.4750 -27.6655 -78.6150 42.3358 -35.1802 172.5696 174.0876 -76.9906 -71.7256 -14.6725 10.6343 -5.4363 104.4215 -7.0077 -143.1834 19.5690 -54.7826 29.6716 -159.9674 5.3571
12.3928 -3.8541 -3.0758 162.6970 73.2029 -12.8949 -10.0724 11.6956 -1.0342 -10.0724 11.6956 -1.0342 67.8100 -21.3365 -14.4315 58.7380 11.5605 6.5209 -96.5197 10.3433 -11.5846 -60.1585 3.8381 6.6217 -80.0661 20.7106 24.5427 -108.7382 -2.6428 -1.8944 71.7883 2.7543 -3.8051 39.2716 -2.7956 7.8248 -172.9451 155.4205 31.5993 23.4021 -64.5634 -14.9081 -62.5299 43.5642 -27.2764 -76.6207 43.5704 -35.0480 172.1379 174.0517 -74.1840 -72.0381 -14.9633 10.9082 -5.2495 115.8244 -8.3634 -166.1602 1.9824 -16.2267 15.3144 -143.3672 5.0966
12.2031 -3.3460 -3.0286 164.7428 80.8133 -13.0091 -9.1946 12.9090 -1.0424 -9.1946 12.9090 -1.0424 71.0977 -21.2379 -15.2615 59.3895 12.2999 7.0325 -98.3677 6.6704 -7.7204 -57.0131 3.9124 7.1971 -83.5154 18.4070 20.5729 -115.6645 -3.7697 -2.3715 72.9082 -1.5298 2.0708 46.7440 -4.5378 10.4765 0.0000 0.0000 0.0000 23.5329 -63.9651 -14.8220 -61.0131 44.7095 -27.2412 -73.9405 44.3107 -34.0810 -179.8320 -179.8734 -74.0064 -72.3030 -15.0732 11.0420 -3.0127 120.7162 -5.2917 -170.1168 -0.0251 0.2902 21.2837 -138.7757 8.0851
11.9691 -3.3059 -2.2195 164.5517 63.8208 -9.6554 -6.9773 15.1682 -0.9301 -6.9773 15.1682 -0.9301 64.3852 -29.6069 -18.8922 59.9877 8.5689 4.9522 -94.4856 13.9261 -15.0488 -54.2668 2.7873 5.4360 -85.2262 19.6955 21.3710 -119.4943 -1.9892 -1.1603 75.8370 5.0888 -6.5298 0.0000 0.0000 0.0000 0.0000 0.0000 0.0000 24.1221 -62.5553 -14.7912 -62.2221 43.9730 -27.3882 -76.2922 42.4876 -33.9578 -157.8958 -165.2991 -66.8839 -75.0761 -3.4308 2.6365 -1.1920 128.1091 -2.4497 -9.5894 148.7417 -33.3808 26.8049 -135.3594 11.1742
11.7964 -3.2492 -2.1533 164.5051 62.8626 -9.5060 -6.8056 15.0459 -0.8998 -6.8056 15.0459 -0.8998 64.7359 -30.3092 -19.4820 60.0013 8.3408 4.8214 -93.7185 15.8801 -16.9307 -54.7140 2.8948 5.5916 -89.2320 20.9008 21.1765 -123.3148 -4.3311 -2.3370 75.4536 5.9930 -7.7419 0.0000 0.0000 0.0000 0.0000 0.0000 0.0000 24.1314 -58.9551 -13.7789 -61.3238 47.2826 -29.0971 -75.8281 44.3439 -35.2196 -148.9713 -159.9900 -64.8736 -74.9116 -5.3125 4.0712 4.1591 124.4387 7.8859 -3.6821 168.7419 -36.1246 37.1754 -138.1430 14.6574
11.7258 -3.2646 -1.5434 164.2986 46.9218 -6.8492 -6.0986 15.2802 -0.8188 -6.0986 15.2802 -0.8188 58.5188 -38.1339 -21.9182 60.3599 3.9933 2.3229 -86.0380 24.7932 -23.1818 -54.4869 0.6722 1.3056 -90.0956 21.6773 21.6421 -125.0426 -2.5676 -1.3356 88.4066 19.9753 -20.5269 0.0000 0.0000 0.0000 0.0000 0.0000 0.0000 25.4473 -57.5056 -14.1246 -55.9081 52.7833 -29.5062 -72.7432 48.5897 -36.7800 -142.8672 -157.9249 -60.2906 -75.8791 -7.2178 5.6299 16.6416 123.2522 30.3033 7.6793 -167.0177 -61.0703 52.7648 -133.4006 24.1163
11.7910 -3.3199 -1.0415 164.1627 31.5308 -4.4975 -6.3172 16.9838 -0.9441 -6.3172 16.9838 -0.9441 53.7301 -43.4069 -22.7984 62.4147 1.4735 0.8927 -78.5563 29.8103 -24.5625 -54.2268 -0.8887 -1.7356 -90.4800 19.6229 19.4623 -126.6567 -4.4958 -2.2592 97.6336 23.5275 -20.6523 0.0000 0.0000 0.0000 0.0000 0.0000 0.0000 29.1630 -54.0898 -15.1295 -55.6574 53.0370 -29.5135 -75.2777 46.4450 -36.6175 -133.8022 -151.0321 -62.4025 -76.3641 -8.8592 6.9723 28.0738 117.9497 45.1430 9.4507 -160.6815 -51.8081 54.3721 -127.2083 28.6023
11.8070 -3.3584 -0.5611 164.0069 14.5928 -2.0609 -6.7689 17.9986 -1.0732 -6.7689 17.9986 -1.0732 51.6498 -46.2985 -23.3809 63.9600 2.2341 1.3951 -78.0785 27.6107 -22.5385 -56.4141 -1.0444 -1.9471 -91.2269 18.5756 18.1887 -126.3183 -5.1719 -2.6184 98.9491 20.2670 -17.3738 0.0000 0.0000 0.0000 0.0000 0.0000 0.0000 30.9846 -52.6613 -15.6216 -55.7976 53.1818 -29.6868 -75.3075 46.4841 -36.6682 -126.2321 -144.5147 -64.5134 -76.9566 -8.7108 6.9284 0.0000 0.0000 0.0000 0.0000 0.0000 0.0000 54.0959 -123.9863 30.3855
11.8309 -3.3725 -0.4271 163.9000 9.1722 -1.3000 -6.7884 17.7099 -1.0588 -6.7884 17.7099 -1.0588 52.0651 -46.7951 -23.8666 65.0308 3.2613 2.0792 -78.1948 25.2815 -20.6571 -60.3827 -0.4515 -0.7760 -90.7819 18.5653 18.3180 -123.2475 -5.6482 -3.0527 97.7302 17.6269 -15.4246 0.0000 0.0000 0.0000 0.0000 0.0000 0.0000 30.2658 -52.4828 -15.1871 -57.1873 52.3187 -29.9765 -75.4851 46.7826 -37.0244 -123.2773 -141.5531 -65.7201 -76.8041 -9.4805 7.5211 0.0000 0.0000 0.0000 0.0000 0.0000 0.0000 0.0000 0.0000 0.0000
11.7980 -3.3750 -0.3527 163.7750 6.2545 -0.8924 -6.4821 17.0237 -0.9711 -6.4821 17.0237 -0.9711 49.2976 -50.1404 -24.2302 65.5496 1.5276 0.9836 -76.7313 26.5593 -21.1655 -61.2552 -0.0523 -0.0883 -90.6114 19.2686 19.0678 -122.8076 -5.1534 -2.8106 0.0000 0.0000 0.0000 0.0000 0.0000 0.0000 0.0000 0.0000 0.0000 29.7327 -52.3138 -14.8555 -57.9396 51.9295 -30.1761 -76.1189 46.3357 -37.0475 -122.0818 -140.4396 -66.0387 -76.5236 -9.5760 7.5590 0.0000 0.0000 0.0000 0.0000 0.0000 0.0000 0.0000 0.0000 0.0000
